<?xml version="1.0" encoding="UTF-8" standalone="no"?>
<svg width="72px" height="72px" viewBox="0 0 72 72" version="1.1" xmlns="http://www.w3.org/2000/svg" xmlns:xlink="http://www.w3.org/1999/xlink">
    <!-- Generator: sketchtool 40.3 (33839) - http://www.bohemiancoding.com/sketch -->
    <title>DBFC2BDF-5DC6-4454-B20D-84AA1FC1608F</title>
    <desc>Created with sketchtool.</desc>
    <defs></defs>
    <g id="Page-1" stroke="none" stroke-width="1" fill="none" fill-rule="evenodd">
        <g id="Refill_Tab" transform="translate(-84.000000, -1312.000000)">
            <g id="Group-6-Copy-3" transform="translate(48.000000, 972.000000)">
                <g id="Group-6-Copy" transform="translate(36.000000, 340.000000)">
                    <rect id="Rectangle" x="0" y="0" width="72" height="72"></rect>
                    <g id="placeholder" transform="translate(10.000000, 12.000000)" fill="#AAC1DB" stroke="#AAC1DB">
                        <g id="Group">
                            <path d="M25.449,21.7901639 C28.6233387,21.7901639 31.2070645,19.2155738 31.2070645,16.052459 C31.2070645,12.8893443 28.6233387,10.3147541 25.449,10.3147541 C22.2746613,10.3147541 19.6909355,12.8893443 19.6909355,16.052459 C19.6909355,19.2155738 22.2738387,21.7901639 25.449,21.7901639 L25.449,21.7901639 Z M25.449,11.9540984 C27.7168548,11.9540984 29.5619032,13.792623 29.5619032,16.052459 C29.5619032,18.3122951 27.7168548,20.1508197 25.449,20.1508197 C23.1811452,20.1508197 21.3360968,18.3122951 21.3360968,16.052459 C21.3360968,13.792623 23.1811452,11.9540984 25.449,11.9540984 L25.449,11.9540984 Z" id="Shape"></path>
                            <path d="M41.3067097,30.8065574 L35.4162097,30.8065574 L37.9226129,27.2 C42.6565645,20.9122951 41.9713548,10.5770492 36.4575968,5.08360656 C33.4790323,2.1147541 29.5174839,0.479508197 25.3034032,0.479508197 C21.0901452,0.479508197 17.1285968,2.1147541 14.1492097,5.08360656 C8.63545161,10.5770492 7.95024194,20.9131148 12.6652742,27.1754098 L15.1889516,30.807377 L9.00890323,30.807377 L0,49.6590164 L50.3156129,49.6590164 L41.3067097,30.8065574 L41.3067097,30.8065574 Z M14.0003226,26.2163934 C9.72372581,20.5336066 10.3365484,11.2 15.3131613,6.24180328 C17.9816129,3.58278689 21.5302258,2.11803279 25.3042258,2.11803279 C29.0782258,2.11803279 32.6260161,3.58278689 35.2952903,6.24180328 C40.2719032,11.2 40.8847258,20.5344262 36.5892097,26.2409836 L25.3034032,42.4811475 L17.1902903,30.8065574 L17.1902903,30.8065574 L14.0003226,26.2163934 L14.0003226,26.2163934 Z M10.0486452,32.4459016 L16.3282258,32.4459016 L25.3034032,45.3614754 L34.2777581,32.4459016 L40.2669677,32.4459016 L47.7096774,48.0196721 L2.60593548,48.0196721 L10.0486452,32.4459016 L10.0486452,32.4459016 Z" id="Shape" stroke-width="2"></path>
                        </g>
                    </g>
                </g>
            </g>
        </g>
    </g>
</svg>