<?xml version="1.0" encoding="UTF-8" standalone="no"?>
<svg width="72px" height="72px" viewBox="0 0 72 72" version="1.1" xmlns="http://www.w3.org/2000/svg" xmlns:xlink="http://www.w3.org/1999/xlink">
    <!-- Generator: sketchtool 40.3 (33839) - http://www.bohemiancoding.com/sketch -->
    <title>DCFB2D23-79A4-4912-8FD0-F27ABEADB18E</title>
    <desc>Created with sketchtool.</desc>
    <defs></defs>
    <g id="Page-1" stroke="none" stroke-width="1" fill="none" fill-rule="evenodd">
        <g id="Refill_Tab" transform="translate(-84.000000, -1161.000000)">
            <g id="Group-6-Copy-3" transform="translate(48.000000, 972.000000)">
                <g id="Group-6" transform="translate(36.000000, 189.000000)">
                    <g id="Group" transform="translate(10.000000, 14.000000)">
                        <path d="M22.9301219,2.15300974 C24.6255687,-0.692918956 27.3789738,-0.685293929 29.0698781,2.15300974 L50.9301219,38.8469903 C52.6255687,41.692919 51.3178698,44 48.007019,44 L3.99298096,44 C0.683148969,44 -0.62102617,41.6852939 1.06987814,38.8469903 L22.9301219,2.15300974 Z" id="Triangle" stroke="#AAC1DB" stroke-width="4"></path>
                        <path d="M27.4264323,30.8416829 L24.0927734,30.8416829 L23.7259115,14.3434896 L27.8092448,14.3434896 L27.4264323,30.8416829 Z M23.6142578,35.8859212 C23.6142578,35.275469 23.8109789,34.7694437 24.2044271,34.3678304 C24.5978752,33.9662171 25.1348707,33.7654134 25.8154297,33.7654134 C26.4959886,33.7654134 27.0329841,33.9662171 27.4264323,34.3678304 C27.8198804,34.7694437 28.0166016,35.275469 28.0166016,35.8859212 C28.0166016,36.4749541 27.8251972,36.9675924 27.4423828,37.3638509 C27.0595684,37.7601094 26.5172561,37.9582357 25.8154297,37.9582357 C25.1136033,37.9582357 24.571291,37.7601094 24.1884766,37.3638509 C23.8056621,36.9675924 23.6142578,36.4749541 23.6142578,35.8859212 L23.6142578,35.8859212 Z" id="!" fill="#AAC1DB"></path>
                    </g>
                    <rect id="Rectangle" x="0" y="0" width="72" height="72"></rect>
                </g>
            </g>
        </g>
    </g>
</svg>