<?xml version="1.0" encoding="UTF-8" standalone="no"?>
<svg width="72px" height="72px" viewBox="0 0 72 72" version="1.1" xmlns="http://www.w3.org/2000/svg" xmlns:xlink="http://www.w3.org/1999/xlink">
    <!-- Generator: sketchtool 3.6.1 (26313) - http://www.bohemiancoding.com/sketch -->
    <title>0C3294F5-DBF1-4F3B-969E-422EA36ED39F</title>
    <desc>Created with sketchtool.</desc>
    <defs>
        <path d="M36,48 C39.3,48 42,50.7 42,54 C42,57.3 39.3,60 36,60 C32.7,60 30,57.3 30,54 C30,50.7 32.7,48 36,48 L36,48 Z M36,42 C32.7,42 30,39.3 30,36 C30,32.7 32.7,30 36,30 C39.3,30 42,32.7 42,36 C42,39.3 39.3,42 36,42 L36,42 Z M36,24 C32.7,24 30,21.3 30,18 C30,14.7 32.7,12 36,12 C39.3,12 42,14.7 42,18 C42,21.3 39.3,24 36,24 L36,24 Z" id="path-1"></path>
    </defs>
    <g id="Page-1" stroke="none" stroke-width="1" fill="none" fill-rule="evenodd">
        <g id="My_List" transform="translate(-948.000000, -703.000000)">
            <g id="Group-2" transform="translate(24.000000, 432.000000)">
                <g id="Group-5-Copy" transform="translate(0.000000, 211.000000)">
                    <g id="more-copy" transform="translate(924.000000, 60.000000)">
                        <path d="M72,0 L0,0 L0,72 L72,72 L72,0 Z" id="more" transform="translate(36.000000, 36.000000) scale(1, -1) translate(-36.000000, -36.000000) "></path>
                        <g id="Shape">
                            <use fill="#E2E2E2" fill-rule="evenodd" transform="translate(36.000000, 36.000000) scale(1, -1) translate(-36.000000, -36.000000) " xlink:href="#path-1"></use>
                            <use fill="none" xlink:href="#path-1"></use>
                        </g>
                    </g>
                </g>
            </g>
        </g>
    </g>
</svg>